<mxfile host="app.diagrams.net" modified="2020-09-22T12:25:08.290Z" agent="5.0 (Windows)" etag="2ZdGVM_JzxAZaQnws4d1" version="13.7.4" type="github">
  <diagram id="MmuCgXHSw4A3MkH1gKjn" name="Page-1">
    <mxGraphModel dx="1422" dy="787" grid="1" gridSize="10" guides="1" tooltips="1" connect="1" arrows="1" fold="1" page="1" pageScale="1" pageWidth="1169" pageHeight="1654" math="0" shadow="0">
      <root>
        <mxCell id="0" />
        <mxCell id="1" parent="0" />
        <mxCell id="0p2p-0njiXwX8uIJ9W5Q-1" value="" style="ellipse;whiteSpace=wrap;html=1;aspect=fixed;fillColor=#000000;" parent="1" vertex="1">
          <mxGeometry x="1240" y="40" width="40" height="40" as="geometry" />
        </mxCell>
        <mxCell id="0p2p-0njiXwX8uIJ9W5Q-2" value="Affichage menu administrateur" style="rounded=0;whiteSpace=wrap;html=1;fillColor=#FFFFFF;" parent="1" vertex="1">
          <mxGeometry x="1200" y="160" width="120" height="40" as="geometry" />
        </mxCell>
        <mxCell id="0p2p-0njiXwX8uIJ9W5Q-3" value="" style="endArrow=none;html=1;" parent="1" edge="1">
          <mxGeometry width="50" height="50" relative="1" as="geometry">
            <mxPoint x="500" y="320" as="sourcePoint" />
            <mxPoint x="2300" y="320" as="targetPoint" />
          </mxGeometry>
        </mxCell>
        <mxCell id="0p2p-0njiXwX8uIJ9W5Q-4" value="" style="endArrow=classic;html=1;entryX=0.5;entryY=0;entryDx=0;entryDy=0;exitX=0.5;exitY=1;exitDx=0;exitDy=0;" parent="1" source="0p2p-0njiXwX8uIJ9W5Q-1" target="0p2p-0njiXwX8uIJ9W5Q-2" edge="1">
          <mxGeometry width="50" height="50" relative="1" as="geometry">
            <mxPoint x="1200" y="220" as="sourcePoint" />
            <mxPoint x="1200" y="260" as="targetPoint" />
          </mxGeometry>
        </mxCell>
        <mxCell id="0p2p-0njiXwX8uIJ9W5Q-5" value="Accéder liste des cocktails" style="rounded=0;whiteSpace=wrap;html=1;fillColor=#FFFFFF;" parent="1" vertex="1">
          <mxGeometry x="1200" y="360" width="120" height="40" as="geometry" />
        </mxCell>
        <mxCell id="0p2p-0njiXwX8uIJ9W5Q-6" value="" style="endArrow=classic;html=1;entryX=0.5;entryY=0;entryDx=0;entryDy=0;" parent="1" target="0p2p-0njiXwX8uIJ9W5Q-5" edge="1">
          <mxGeometry width="50" height="50" relative="1" as="geometry">
            <mxPoint x="1260" y="320" as="sourcePoint" />
            <mxPoint x="1390" y="370" as="targetPoint" />
          </mxGeometry>
        </mxCell>
        <mxCell id="0p2p-0njiXwX8uIJ9W5Q-7" value="&lt;font style=&quot;font-size: 16px&quot;&gt;Début&lt;/font&gt;" style="text;html=1;strokeColor=none;fillColor=none;align=center;verticalAlign=middle;whiteSpace=wrap;rounded=0;" parent="1" vertex="1">
          <mxGeometry x="1280" y="50" width="60" height="20" as="geometry" />
        </mxCell>
        <mxCell id="0p2p-0njiXwX8uIJ9W5Q-8" value="Quitter l&#39;application" style="rounded=0;whiteSpace=wrap;html=1;fillColor=#FFFFFF;" parent="1" vertex="1">
          <mxGeometry x="2240" y="360" width="120" height="40" as="geometry" />
        </mxCell>
        <mxCell id="0p2p-0njiXwX8uIJ9W5Q-9" value="" style="endArrow=classic;html=1;entryX=0.5;entryY=0;entryDx=0;entryDy=0;" parent="1" target="0p2p-0njiXwX8uIJ9W5Q-8" edge="1">
          <mxGeometry width="50" height="50" relative="1" as="geometry">
            <mxPoint x="2300" y="320" as="sourcePoint" />
            <mxPoint x="2150" y="370" as="targetPoint" />
          </mxGeometry>
        </mxCell>
        <mxCell id="0p2p-0njiXwX8uIJ9W5Q-10" value="" style="ellipse;whiteSpace=wrap;html=1;aspect=fixed;fillColor=none;" parent="1" vertex="1">
          <mxGeometry x="2275" y="475" width="50" height="50" as="geometry" />
        </mxCell>
        <mxCell id="0p2p-0njiXwX8uIJ9W5Q-11" value="" style="ellipse;whiteSpace=wrap;html=1;aspect=fixed;fillColor=#000000;" parent="1" vertex="1">
          <mxGeometry x="2280" y="480" width="40" height="40" as="geometry" />
        </mxCell>
        <mxCell id="0p2p-0njiXwX8uIJ9W5Q-12" value="" style="endArrow=classic;html=1;exitX=0.5;exitY=1;exitDx=0;exitDy=0;entryX=0.5;entryY=0;entryDx=0;entryDy=0;" parent="1" source="0p2p-0njiXwX8uIJ9W5Q-8" target="0p2p-0njiXwX8uIJ9W5Q-10" edge="1">
          <mxGeometry width="50" height="50" relative="1" as="geometry">
            <mxPoint x="2295" y="490" as="sourcePoint" />
            <mxPoint x="2300" y="450" as="targetPoint" />
          </mxGeometry>
        </mxCell>
        <mxCell id="0p2p-0njiXwX8uIJ9W5Q-13" value="&lt;font style=&quot;font-size: 16px&quot;&gt;Fin&lt;/font&gt;" style="text;html=1;strokeColor=none;fillColor=none;align=center;verticalAlign=middle;whiteSpace=wrap;rounded=0;" parent="1" vertex="1">
          <mxGeometry x="2325" y="490" width="45" height="20" as="geometry" />
        </mxCell>
        <mxCell id="0p2p-0njiXwX8uIJ9W5Q-14" value="Choix d&#39;une option" style="rounded=0;whiteSpace=wrap;html=1;fillColor=#FFFFFF;" parent="1" vertex="1">
          <mxGeometry x="1200" y="240" width="120" height="40" as="geometry" />
        </mxCell>
        <mxCell id="0p2p-0njiXwX8uIJ9W5Q-15" value="" style="endArrow=none;html=1;" parent="1" edge="1">
          <mxGeometry width="50" height="50" relative="1" as="geometry">
            <mxPoint x="1260" y="320" as="sourcePoint" />
            <mxPoint x="1260" y="280" as="targetPoint" />
          </mxGeometry>
        </mxCell>
        <mxCell id="0p2p-0njiXwX8uIJ9W5Q-16" value="" style="endArrow=classic;html=1;entryX=0.5;entryY=0;entryDx=0;entryDy=0;exitX=0.5;exitY=1;exitDx=0;exitDy=0;" parent="1" source="0p2p-0njiXwX8uIJ9W5Q-2" target="0p2p-0njiXwX8uIJ9W5Q-14" edge="1">
          <mxGeometry width="50" height="50" relative="1" as="geometry">
            <mxPoint x="1270" y="90" as="sourcePoint" />
            <mxPoint x="1270" y="170" as="targetPoint" />
          </mxGeometry>
        </mxCell>
        <mxCell id="0p2p-0njiXwX8uIJ9W5Q-17" value="" style="endArrow=none;html=1;" parent="1" edge="1">
          <mxGeometry width="50" height="50" relative="1" as="geometry">
            <mxPoint x="650" y="440" as="sourcePoint" />
            <mxPoint x="1580" y="440" as="targetPoint" />
          </mxGeometry>
        </mxCell>
        <mxCell id="0p2p-0njiXwX8uIJ9W5Q-18" value="Choisir le nom" style="rounded=0;whiteSpace=wrap;html=1;fillColor=#FFFFFF;" parent="1" vertex="1">
          <mxGeometry x="1040" y="480" width="120" height="40" as="geometry" />
        </mxCell>
        <mxCell id="0p2p-0njiXwX8uIJ9W5Q-19" value="" style="endArrow=classic;html=1;entryX=1;entryY=0.5;entryDx=0;entryDy=0;exitX=0;exitY=0.5;exitDx=0;exitDy=0;" parent="1" source="0p2p-0njiXwX8uIJ9W5Q-28" target="0p2p-0njiXwX8uIJ9W5Q-18" edge="1">
          <mxGeometry width="50" height="50" relative="1" as="geometry">
            <mxPoint x="980" y="560" as="sourcePoint" />
            <mxPoint x="1550" y="610" as="targetPoint" />
          </mxGeometry>
        </mxCell>
        <mxCell id="0p2p-0njiXwX8uIJ9W5Q-20" value="Choisir les ingrédients" style="rounded=0;whiteSpace=wrap;html=1;fillColor=#FFFFFF;" parent="1" vertex="1">
          <mxGeometry x="1070" y="640" width="120" height="40" as="geometry" />
        </mxCell>
        <mxCell id="0p2p-0njiXwX8uIJ9W5Q-21" value="" style="endArrow=classic;html=1;entryX=0.5;entryY=0;entryDx=0;entryDy=0;" parent="1" target="0p2p-0njiXwX8uIJ9W5Q-20" edge="1">
          <mxGeometry width="50" height="50" relative="1" as="geometry">
            <mxPoint x="1130" y="600" as="sourcePoint" />
            <mxPoint x="1410" y="527.86" as="targetPoint" />
          </mxGeometry>
        </mxCell>
        <mxCell id="0p2p-0njiXwX8uIJ9W5Q-22" value="" style="endArrow=none;html=1;entryX=0.5;entryY=1;entryDx=0;entryDy=0;" parent="1" target="0p2p-0njiXwX8uIJ9W5Q-5" edge="1">
          <mxGeometry width="50" height="50" relative="1" as="geometry">
            <mxPoint x="1260" y="440" as="sourcePoint" />
            <mxPoint x="1140" y="400" as="targetPoint" />
          </mxGeometry>
        </mxCell>
        <mxCell id="0p2p-0njiXwX8uIJ9W5Q-23" value="Choisir la taille du verre" style="rounded=0;whiteSpace=wrap;html=1;fillColor=#FFFFFF;" parent="1" vertex="1">
          <mxGeometry x="1230" y="640" width="120" height="40" as="geometry" />
        </mxCell>
        <mxCell id="0p2p-0njiXwX8uIJ9W5Q-24" value="Choisir avec ou sans alcool" style="rounded=0;whiteSpace=wrap;html=1;fillColor=#FFFFFF;" parent="1" vertex="1">
          <mxGeometry x="1390" y="640" width="120" height="40" as="geometry" />
        </mxCell>
        <mxCell id="0p2p-0njiXwX8uIJ9W5Q-25" value="" style="endArrow=classic;html=1;entryX=0.5;entryY=0;entryDx=0;entryDy=0;" parent="1" target="0p2p-0njiXwX8uIJ9W5Q-24" edge="1">
          <mxGeometry width="50" height="50" relative="1" as="geometry">
            <mxPoint x="1450" y="600" as="sourcePoint" />
            <mxPoint x="1410" y="637.86" as="targetPoint" />
          </mxGeometry>
        </mxCell>
        <mxCell id="0p2p-0njiXwX8uIJ9W5Q-26" value="" style="endArrow=none;html=1;" parent="1" edge="1">
          <mxGeometry width="50" height="50" relative="1" as="geometry">
            <mxPoint x="1130" y="720" as="sourcePoint" />
            <mxPoint x="1130" y="680" as="targetPoint" />
          </mxGeometry>
        </mxCell>
        <mxCell id="0p2p-0njiXwX8uIJ9W5Q-27" value="" style="endArrow=classic;html=1;" parent="1" target="0p2p-0njiXwX8uIJ9W5Q-23" edge="1">
          <mxGeometry width="50" height="50" relative="1" as="geometry">
            <mxPoint x="1290" y="597.8599999999999" as="sourcePoint" />
            <mxPoint x="1610" y="707.86" as="targetPoint" />
          </mxGeometry>
        </mxCell>
        <mxCell id="0p2p-0njiXwX8uIJ9W5Q-28" value="Affiner la recherche" style="rounded=0;whiteSpace=wrap;html=1;fillColor=#FFFFFF;" parent="1" vertex="1">
          <mxGeometry x="1200" y="480" width="120" height="40" as="geometry" />
        </mxCell>
        <mxCell id="0p2p-0njiXwX8uIJ9W5Q-29" value="" style="endArrow=classic;html=1;entryX=0.5;entryY=0;entryDx=0;entryDy=0;" parent="1" target="0p2p-0njiXwX8uIJ9W5Q-28" edge="1">
          <mxGeometry width="50" height="50" relative="1" as="geometry">
            <mxPoint x="1260" y="440" as="sourcePoint" />
            <mxPoint x="1100" y="370" as="targetPoint" />
          </mxGeometry>
        </mxCell>
        <mxCell id="0p2p-0njiXwX8uIJ9W5Q-30" value="Consulter un cocktail" style="rounded=0;whiteSpace=wrap;html=1;fillColor=#FFFFFF;" parent="1" vertex="1">
          <mxGeometry x="560" y="480" width="120" height="40" as="geometry" />
        </mxCell>
        <mxCell id="0p2p-0njiXwX8uIJ9W5Q-31" value="" style="endArrow=classic;html=1;entryX=0.75;entryY=0;entryDx=0;entryDy=0;" parent="1" target="0p2p-0njiXwX8uIJ9W5Q-30" edge="1">
          <mxGeometry width="50" height="50" relative="1" as="geometry">
            <mxPoint x="650" y="440" as="sourcePoint" />
            <mxPoint x="460" y="370" as="targetPoint" />
          </mxGeometry>
        </mxCell>
        <mxCell id="0p2p-0njiXwX8uIJ9W5Q-32" value="" style="endArrow=none;html=1;" parent="1" edge="1">
          <mxGeometry width="50" height="50" relative="1" as="geometry">
            <mxPoint x="1130" y="600" as="sourcePoint" />
            <mxPoint x="1450" y="600" as="targetPoint" />
          </mxGeometry>
        </mxCell>
        <mxCell id="0p2p-0njiXwX8uIJ9W5Q-33" value="" style="endArrow=none;html=1;entryX=0.75;entryY=1;entryDx=0;entryDy=0;entryPerimeter=0;" parent="1" target="0p2p-0njiXwX8uIJ9W5Q-28" edge="1">
          <mxGeometry width="50" height="50" relative="1" as="geometry">
            <mxPoint x="1290" y="600" as="sourcePoint" />
            <mxPoint x="1302" y="520" as="targetPoint" />
          </mxGeometry>
        </mxCell>
        <mxCell id="0p2p-0njiXwX8uIJ9W5Q-34" value="Supprimer le cocktail des favoris" style="rounded=0;whiteSpace=wrap;html=1;fillColor=#FFFFFF;" parent="1" vertex="1">
          <mxGeometry x="440" y="640" width="120" height="40" as="geometry" />
        </mxCell>
        <mxCell id="0p2p-0njiXwX8uIJ9W5Q-35" value="Menu administrateur" style="rounded=0;whiteSpace=wrap;html=1;fillColor=#FFFFFF;" parent="1" vertex="1">
          <mxGeometry x="440" y="1000" width="120" height="40" as="geometry" />
        </mxCell>
        <mxCell id="0p2p-0njiXwX8uIJ9W5Q-36" value="" style="endArrow=classic;html=1;entryX=1;entryY=0.25;entryDx=0;entryDy=0;exitX=0;exitY=0.25;exitDx=0;exitDy=0;" parent="1" source="0p2p-0njiXwX8uIJ9W5Q-18" target="0p2p-0njiXwX8uIJ9W5Q-30" edge="1">
          <mxGeometry width="50" height="50" relative="1" as="geometry">
            <mxPoint x="1130" y="510" as="sourcePoint" />
            <mxPoint x="1010" y="510" as="targetPoint" />
          </mxGeometry>
        </mxCell>
        <mxCell id="0p2p-0njiXwX8uIJ9W5Q-37" value="" style="endArrow=none;html=1;entryX=0.5;entryY=1;entryDx=0;entryDy=0;" parent="1" edge="1">
          <mxGeometry width="50" height="50" relative="1" as="geometry">
            <mxPoint x="1290" y="720" as="sourcePoint" />
            <mxPoint x="1290" y="680" as="targetPoint" />
          </mxGeometry>
        </mxCell>
        <mxCell id="0p2p-0njiXwX8uIJ9W5Q-38" value="" style="endArrow=none;html=1;" parent="1" edge="1">
          <mxGeometry width="50" height="50" relative="1" as="geometry">
            <mxPoint x="960" y="720.1400000000001" as="sourcePoint" />
            <mxPoint x="1450" y="720" as="targetPoint" />
          </mxGeometry>
        </mxCell>
        <mxCell id="0p2p-0njiXwX8uIJ9W5Q-39" value="" style="endArrow=none;html=1;entryX=0.5;entryY=1;entryDx=0;entryDy=0;" parent="1" edge="1">
          <mxGeometry width="50" height="50" relative="1" as="geometry">
            <mxPoint x="1450" y="720" as="sourcePoint" />
            <mxPoint x="1450" y="680" as="targetPoint" />
          </mxGeometry>
        </mxCell>
        <mxCell id="0p2p-0njiXwX8uIJ9W5Q-40" value="" style="endArrow=none;html=1;exitX=1;exitY=0.5;exitDx=0;exitDy=0;" parent="1" edge="1">
          <mxGeometry width="50" height="50" relative="1" as="geometry">
            <mxPoint x="969.9999999999991" y="560" as="sourcePoint" />
            <mxPoint x="1230" y="560" as="targetPoint" />
          </mxGeometry>
        </mxCell>
        <mxCell id="0p2p-0njiXwX8uIJ9W5Q-41" value="" style="endArrow=classic;html=1;entryX=0.25;entryY=1;entryDx=0;entryDy=0;" parent="1" target="0p2p-0njiXwX8uIJ9W5Q-28" edge="1">
          <mxGeometry width="50" height="50" relative="1" as="geometry">
            <mxPoint x="1230" y="560" as="sourcePoint" />
            <mxPoint x="1140" y="647.8599999999999" as="targetPoint" />
          </mxGeometry>
        </mxCell>
        <mxCell id="0p2p-0njiXwX8uIJ9W5Q-42" value="" style="endArrow=classic;html=1;entryX=0.5;entryY=1;entryDx=0;entryDy=0;" parent="1" edge="1">
          <mxGeometry width="50" height="50" relative="1" as="geometry">
            <mxPoint x="960" y="720" as="sourcePoint" />
            <mxPoint x="960" y="570" as="targetPoint" />
          </mxGeometry>
        </mxCell>
        <mxCell id="0p2p-0njiXwX8uIJ9W5Q-43" value="" style="endArrow=none;html=1;exitX=0.5;exitY=0;exitDx=0;exitDy=0;" parent="1" edge="1">
          <mxGeometry width="50" height="50" relative="1" as="geometry">
            <mxPoint x="960" y="550" as="sourcePoint" />
            <mxPoint x="960" y="490" as="targetPoint" />
          </mxGeometry>
        </mxCell>
        <mxCell id="0p2p-0njiXwX8uIJ9W5Q-44" value="" style="rhombus;whiteSpace=wrap;html=1;fillColor=#FFFFFF;" parent="1" vertex="1">
          <mxGeometry x="950" y="550" width="20" height="20" as="geometry" />
        </mxCell>
        <mxCell id="0p2p-0njiXwX8uIJ9W5Q-45" value="Accéder à la liste de favoris" style="rounded=0;whiteSpace=wrap;html=1;fillColor=#FFFFFF;" parent="1" vertex="1">
          <mxGeometry x="440" y="360" width="120" height="40" as="geometry" />
        </mxCell>
        <mxCell id="0p2p-0njiXwX8uIJ9W5Q-46" value="Ajouter le cocktail aux favoris" style="rounded=0;whiteSpace=wrap;html=1;fillColor=#FFFFFF;" parent="1" vertex="1">
          <mxGeometry x="440" y="560" width="120" height="40" as="geometry" />
        </mxCell>
        <mxCell id="0p2p-0njiXwX8uIJ9W5Q-47" value="" style="endArrow=classic;html=1;entryX=0;entryY=0.75;entryDx=0;entryDy=0;exitX=0.25;exitY=0;exitDx=0;exitDy=0;" parent="1" source="0p2p-0njiXwX8uIJ9W5Q-54" target="0p2p-0njiXwX8uIJ9W5Q-53" edge="1">
          <mxGeometry width="50" height="50" relative="1" as="geometry">
            <mxPoint x="420" y="830" as="sourcePoint" />
            <mxPoint x="1070" y="560" as="targetPoint" />
            <Array as="points">
              <mxPoint x="390" y="750" />
            </Array>
          </mxGeometry>
        </mxCell>
        <mxCell id="0p2p-0njiXwX8uIJ9W5Q-48" value="" style="endArrow=classic;html=1;exitX=0;exitY=0.25;exitDx=0;exitDy=0;entryX=0;entryY=0.75;entryDx=0;entryDy=0;" parent="1" source="0p2p-0njiXwX8uIJ9W5Q-53" target="0p2p-0njiXwX8uIJ9W5Q-30" edge="1">
          <mxGeometry width="50" height="50" relative="1" as="geometry">
            <mxPoint x="900" y="650" as="sourcePoint" />
            <mxPoint x="430" y="580" as="targetPoint" />
            <Array as="points">
              <mxPoint x="380" y="730" />
              <mxPoint x="380" y="510" />
            </Array>
          </mxGeometry>
        </mxCell>
        <mxCell id="0p2p-0njiXwX8uIJ9W5Q-49" value="" style="endArrow=classic;html=1;entryX=0;entryY=0.5;entryDx=0;entryDy=0;exitX=0;exitY=0.75;exitDx=0;exitDy=0;" parent="1" source="0p2p-0njiXwX8uIJ9W5Q-35" target="0p2p-0njiXwX8uIJ9W5Q-2" edge="1">
          <mxGeometry width="50" height="50" relative="1" as="geometry">
            <mxPoint x="400" y="750" as="sourcePoint" />
            <mxPoint x="780" y="350" as="targetPoint" />
            <Array as="points">
              <mxPoint x="300" y="1030" />
              <mxPoint x="300" y="180" />
            </Array>
          </mxGeometry>
        </mxCell>
        <mxCell id="0p2p-0njiXwX8uIJ9W5Q-50" value="" style="endArrow=classic;html=1;entryX=0;entryY=0.25;entryDx=0;entryDy=0;exitX=0.5;exitY=1;exitDx=0;exitDy=0;" parent="1" source="0p2p-0njiXwX8uIJ9W5Q-45" target="0p2p-0njiXwX8uIJ9W5Q-30" edge="1">
          <mxGeometry width="50" height="50" relative="1" as="geometry">
            <mxPoint x="760" y="260" as="sourcePoint" />
            <mxPoint x="1010" y="310" as="targetPoint" />
            <Array as="points">
              <mxPoint x="500" y="490" />
            </Array>
          </mxGeometry>
        </mxCell>
        <mxCell id="0p2p-0njiXwX8uIJ9W5Q-51" value="" style="endArrow=classic;html=1;exitX=0;exitY=0.5;exitDx=0;exitDy=0;entryX=0;entryY=0.75;entryDx=0;entryDy=0;" parent="1" source="0p2p-0njiXwX8uIJ9W5Q-30" target="0p2p-0njiXwX8uIJ9W5Q-45" edge="1">
          <mxGeometry width="50" height="50" relative="1" as="geometry">
            <mxPoint x="600" y="290" as="sourcePoint" />
            <mxPoint x="576" y="280" as="targetPoint" />
            <Array as="points">
              <mxPoint x="380" y="500" />
              <mxPoint x="380" y="390" />
            </Array>
          </mxGeometry>
        </mxCell>
        <mxCell id="0p2p-0njiXwX8uIJ9W5Q-52" value="" style="endArrow=classic;html=1;exitX=0;exitY=0.25;exitDx=0;exitDy=0;entryX=0;entryY=0.25;entryDx=0;entryDy=0;" parent="1" source="0p2p-0njiXwX8uIJ9W5Q-45" target="0p2p-0njiXwX8uIJ9W5Q-35" edge="1">
          <mxGeometry width="50" height="50" relative="1" as="geometry">
            <mxPoint x="1020" y="550" as="sourcePoint" />
            <mxPoint x="400" y="740" as="targetPoint" />
            <Array as="points">
              <mxPoint x="340" y="370" />
              <mxPoint x="340" y="1010" />
            </Array>
          </mxGeometry>
        </mxCell>
        <mxCell id="0p2p-0njiXwX8uIJ9W5Q-53" value="Consulter les avis" style="rounded=0;whiteSpace=wrap;html=1;fillColor=#FFFFFF;" parent="1" vertex="1">
          <mxGeometry x="440" y="720" width="120" height="40" as="geometry" />
        </mxCell>
        <mxCell id="0p2p-0njiXwX8uIJ9W5Q-54" value="Ajouter un avis" style="rounded=0;whiteSpace=wrap;html=1;fillColor=#FFFFFF;" parent="1" vertex="1">
          <mxGeometry x="360" y="840" width="120" height="40" as="geometry" />
        </mxCell>
        <mxCell id="0p2p-0njiXwX8uIJ9W5Q-55" value="" style="endArrow=classic;html=1;exitX=0.75;exitY=1;exitDx=0;exitDy=0;entryX=1;entryY=0.5;entryDx=0;entryDy=0;" parent="1" source="0p2p-0njiXwX8uIJ9W5Q-30" target="0p2p-0njiXwX8uIJ9W5Q-79" edge="1">
          <mxGeometry width="50" height="50" relative="1" as="geometry">
            <mxPoint x="780" y="710" as="sourcePoint" />
            <mxPoint x="560" y="730" as="targetPoint" />
            <Array as="points">
              <mxPoint x="650" y="940" />
            </Array>
          </mxGeometry>
        </mxCell>
        <mxCell id="0p2p-0njiXwX8uIJ9W5Q-56" value="" style="endArrow=classic;html=1;entryX=1;entryY=0.5;entryDx=0;entryDy=0;" parent="1" target="0p2p-0njiXwX8uIJ9W5Q-46" edge="1">
          <mxGeometry width="50" height="50" relative="1" as="geometry">
            <mxPoint x="650" y="580" as="sourcePoint" />
            <mxPoint x="830" y="620" as="targetPoint" />
          </mxGeometry>
        </mxCell>
        <mxCell id="0p2p-0njiXwX8uIJ9W5Q-57" value="" style="endArrow=none;html=1;entryX=0;entryY=0.5;entryDx=0;entryDy=0;" parent="1" target="0p2p-0njiXwX8uIJ9W5Q-46" edge="1">
          <mxGeometry width="50" height="50" relative="1" as="geometry">
            <mxPoint x="380" y="580" as="sourcePoint" />
            <mxPoint x="830" y="620" as="targetPoint" />
          </mxGeometry>
        </mxCell>
        <mxCell id="0p2p-0njiXwX8uIJ9W5Q-58" value="" style="endArrow=classic;html=1;entryX=1;entryY=0.25;entryDx=0;entryDy=0;exitX=1;exitY=0.75;exitDx=0;exitDy=0;" parent="1" source="0p2p-0njiXwX8uIJ9W5Q-30" target="0p2p-0njiXwX8uIJ9W5Q-35" edge="1">
          <mxGeometry width="50" height="50" relative="1" as="geometry">
            <mxPoint x="780" y="810" as="sourcePoint" />
            <mxPoint x="830" y="760" as="targetPoint" />
            <Array as="points">
              <mxPoint x="720" y="510" />
              <mxPoint x="720" y="1010" />
            </Array>
          </mxGeometry>
        </mxCell>
        <mxCell id="0p2p-0njiXwX8uIJ9W5Q-59" value="" style="endArrow=classic;html=1;entryX=1;entryY=0.5;entryDx=0;entryDy=0;" parent="1" target="0p2p-0njiXwX8uIJ9W5Q-34" edge="1">
          <mxGeometry width="50" height="50" relative="1" as="geometry">
            <mxPoint x="650" y="660" as="sourcePoint" />
            <mxPoint x="570" y="590" as="targetPoint" />
          </mxGeometry>
        </mxCell>
        <mxCell id="0p2p-0njiXwX8uIJ9W5Q-60" value="" style="endArrow=none;html=1;entryX=0;entryY=0.5;entryDx=0;entryDy=0;" parent="1" target="0p2p-0njiXwX8uIJ9W5Q-34" edge="1">
          <mxGeometry width="50" height="50" relative="1" as="geometry">
            <mxPoint x="380" y="660" as="sourcePoint" />
            <mxPoint x="450" y="590" as="targetPoint" />
          </mxGeometry>
        </mxCell>
        <mxCell id="0p2p-0njiXwX8uIJ9W5Q-62" value="" style="endArrow=classic;html=1;entryX=0.5;entryY=0;entryDx=0;entryDy=0;" parent="1" target="0p2p-0njiXwX8uIJ9W5Q-45" edge="1">
          <mxGeometry width="50" height="50" relative="1" as="geometry">
            <mxPoint x="500" y="320" as="sourcePoint" />
            <mxPoint x="1150" y="370" as="targetPoint" />
          </mxGeometry>
        </mxCell>
        <mxCell id="0p2p-0njiXwX8uIJ9W5Q-63" value="Ajouter un cocktail" style="rounded=0;whiteSpace=wrap;html=1;fillColor=#FFFFFF;" parent="1" vertex="1">
          <mxGeometry x="1520" y="480" width="120" height="40" as="geometry" />
        </mxCell>
        <mxCell id="0p2p-0njiXwX8uIJ9W5Q-64" value="" style="endArrow=classic;html=1;entryX=0.5;entryY=0;entryDx=0;entryDy=0;" parent="1" target="0p2p-0njiXwX8uIJ9W5Q-63" edge="1">
          <mxGeometry width="50" height="50" relative="1" as="geometry">
            <mxPoint x="1580" y="440" as="sourcePoint" />
            <mxPoint x="1920" y="370" as="targetPoint" />
          </mxGeometry>
        </mxCell>
        <mxCell id="0p2p-0njiXwX8uIJ9W5Q-65" value="Accéder à la liste de toutes consultations" style="rounded=0;whiteSpace=wrap;html=1;fillColor=#FFFFFF;" parent="1" vertex="1">
          <mxGeometry x="760" y="360" width="120" height="40" as="geometry" />
        </mxCell>
        <mxCell id="0p2p-0njiXwX8uIJ9W5Q-66" value="" style="endArrow=classic;html=1;entryX=0.5;entryY=0;entryDx=0;entryDy=0;" parent="1" target="0p2p-0njiXwX8uIJ9W5Q-65" edge="1">
          <mxGeometry width="50" height="50" relative="1" as="geometry">
            <mxPoint x="820" y="320" as="sourcePoint" />
            <mxPoint x="1110" y="370" as="targetPoint" />
          </mxGeometry>
        </mxCell>
        <mxCell id="0p2p-0njiXwX8uIJ9W5Q-67" value="" style="endArrow=classic;html=1;exitX=0;exitY=0.25;exitDx=0;exitDy=0;entryX=0.25;entryY=0;entryDx=0;entryDy=0;" parent="1" source="0p2p-0njiXwX8uIJ9W5Q-65" target="0p2p-0njiXwX8uIJ9W5Q-30" edge="1">
          <mxGeometry width="50" height="50" relative="1" as="geometry">
            <mxPoint x="790" y="610" as="sourcePoint" />
            <mxPoint x="840" y="560" as="targetPoint" />
            <Array as="points">
              <mxPoint x="590" y="370" />
            </Array>
          </mxGeometry>
        </mxCell>
        <mxCell id="0p2p-0njiXwX8uIJ9W5Q-68" value="" style="endArrow=classic;html=1;entryX=0;entryY=0.75;entryDx=0;entryDy=0;exitX=0.5;exitY=0;exitDx=0;exitDy=0;" parent="1" source="0p2p-0njiXwX8uIJ9W5Q-30" target="0p2p-0njiXwX8uIJ9W5Q-65" edge="1">
          <mxGeometry width="50" height="50" relative="1" as="geometry">
            <mxPoint x="790" y="610" as="sourcePoint" />
            <mxPoint x="840" y="560" as="targetPoint" />
            <Array as="points">
              <mxPoint x="620" y="390" />
            </Array>
          </mxGeometry>
        </mxCell>
        <mxCell id="0p2p-0njiXwX8uIJ9W5Q-69" value="" style="endArrow=classic;html=1;entryX=1;entryY=0.75;entryDx=0;entryDy=0;exitX=0.5;exitY=1;exitDx=0;exitDy=0;" parent="1" source="0p2p-0njiXwX8uIJ9W5Q-65" target="0p2p-0njiXwX8uIJ9W5Q-35" edge="1">
          <mxGeometry width="50" height="50" relative="1" as="geometry">
            <mxPoint x="790" y="610" as="sourcePoint" />
            <mxPoint x="840" y="560" as="targetPoint" />
            <Array as="points">
              <mxPoint x="820" y="1030" />
            </Array>
          </mxGeometry>
        </mxCell>
        <mxCell id="0p2p-0njiXwX8uIJ9W5Q-70" value="Supprimer un avis" style="rounded=0;whiteSpace=wrap;html=1;fillColor=#FFFFFF;" parent="1" vertex="1">
          <mxGeometry x="520" y="840" width="120" height="40" as="geometry" />
        </mxCell>
        <mxCell id="0p2p-0njiXwX8uIJ9W5Q-71" value="" style="endArrow=classic;html=1;exitX=0.75;exitY=0;exitDx=0;exitDy=0;entryX=1;entryY=0.75;entryDx=0;entryDy=0;" parent="1" source="0p2p-0njiXwX8uIJ9W5Q-70" target="0p2p-0njiXwX8uIJ9W5Q-53" edge="1">
          <mxGeometry width="50" height="50" relative="1" as="geometry">
            <mxPoint x="840" y="820" as="sourcePoint" />
            <mxPoint x="890" y="770" as="targetPoint" />
            <Array as="points">
              <mxPoint x="610" y="750" />
            </Array>
          </mxGeometry>
        </mxCell>
        <mxCell id="0p2p-0njiXwX8uIJ9W5Q-72" value="" style="endArrow=classic;html=1;entryX=0.75;entryY=0;entryDx=0;entryDy=0;" parent="1" target="0p2p-0njiXwX8uIJ9W5Q-54" edge="1">
          <mxGeometry width="50" height="50" relative="1" as="geometry">
            <mxPoint x="450" y="800" as="sourcePoint" />
            <mxPoint x="890" y="770" as="targetPoint" />
          </mxGeometry>
        </mxCell>
        <mxCell id="0p2p-0njiXwX8uIJ9W5Q-73" value="" style="endArrow=classic;html=1;entryX=0.25;entryY=0;entryDx=0;entryDy=0;" parent="1" target="0p2p-0njiXwX8uIJ9W5Q-70" edge="1">
          <mxGeometry width="50" height="50" relative="1" as="geometry">
            <mxPoint x="550" y="800" as="sourcePoint" />
            <mxPoint x="460" y="850" as="targetPoint" />
          </mxGeometry>
        </mxCell>
        <mxCell id="0p2p-0njiXwX8uIJ9W5Q-74" value="" style="endArrow=none;html=1;" parent="1" edge="1">
          <mxGeometry width="50" height="50" relative="1" as="geometry">
            <mxPoint x="450" y="800" as="sourcePoint" />
            <mxPoint x="550" y="800" as="targetPoint" />
          </mxGeometry>
        </mxCell>
        <mxCell id="0p2p-0njiXwX8uIJ9W5Q-75" value="" style="endArrow=none;html=1;entryX=0.5;entryY=1;entryDx=0;entryDy=0;" parent="1" target="0p2p-0njiXwX8uIJ9W5Q-53" edge="1">
          <mxGeometry width="50" height="50" relative="1" as="geometry">
            <mxPoint x="500" y="800" as="sourcePoint" />
            <mxPoint x="560" y="810" as="targetPoint" />
          </mxGeometry>
        </mxCell>
        <mxCell id="0p2p-0njiXwX8uIJ9W5Q-79" value="Supprimer le cocktail" style="rounded=0;whiteSpace=wrap;html=1;fillColor=#FFFFFF;" parent="1" vertex="1">
          <mxGeometry x="440" y="920" width="120" height="40" as="geometry" />
        </mxCell>
        <mxCell id="0p2p-0njiXwX8uIJ9W5Q-80" value="" style="endArrow=classic;html=1;entryX=1;entryY=0.25;entryDx=0;entryDy=0;" parent="1" target="0p2p-0njiXwX8uIJ9W5Q-53" edge="1">
          <mxGeometry width="50" height="50" relative="1" as="geometry">
            <mxPoint x="650" y="730" as="sourcePoint" />
            <mxPoint x="570" y="670" as="targetPoint" />
          </mxGeometry>
        </mxCell>
        <mxCell id="0p2p-0njiXwX8uIJ9W5Q-81" value="" style="endArrow=classic;html=1;exitX=0.5;exitY=1;exitDx=0;exitDy=0;entryX=0.5;entryY=0;entryDx=0;entryDy=0;" parent="1" source="0p2p-0njiXwX8uIJ9W5Q-79" target="0p2p-0njiXwX8uIJ9W5Q-35" edge="1">
          <mxGeometry width="50" height="50" relative="1" as="geometry">
            <mxPoint x="780" y="740" as="sourcePoint" />
            <mxPoint x="830" y="690" as="targetPoint" />
          </mxGeometry>
        </mxCell>
        <mxCell id="0p2p-0njiXwX8uIJ9W5Q-82" value="Accéder aux suggestions" style="rounded=0;whiteSpace=wrap;html=1;fillColor=#FFFFFF;" parent="1" vertex="1">
          <mxGeometry x="1800" y="360" width="120" height="40" as="geometry" />
        </mxCell>
        <mxCell id="0p2p-0njiXwX8uIJ9W5Q-83" value="" style="endArrow=classic;html=1;entryX=0.5;entryY=0;entryDx=0;entryDy=0;" parent="1" target="0p2p-0njiXwX8uIJ9W5Q-82" edge="1">
          <mxGeometry width="50" height="50" relative="1" as="geometry">
            <mxPoint x="1860" y="320" as="sourcePoint" />
            <mxPoint x="2160" y="250" as="targetPoint" />
          </mxGeometry>
        </mxCell>
        <mxCell id="0p2p-0njiXwX8uIJ9W5Q-84" value="Accepter une suggestion" style="rounded=0;whiteSpace=wrap;html=1;fillColor=#FFFFFF;" parent="1" vertex="1">
          <mxGeometry x="1720" y="560" width="120" height="40" as="geometry" />
        </mxCell>
        <mxCell id="0p2p-0njiXwX8uIJ9W5Q-85" value="" style="endArrow=classic;html=1;entryX=0.5;entryY=0;entryDx=0;entryDy=0;" parent="1" target="0p2p-0njiXwX8uIJ9W5Q-84" edge="1">
          <mxGeometry width="50" height="50" relative="1" as="geometry">
            <mxPoint x="1779.9999999999995" y="520" as="sourcePoint" />
            <mxPoint x="2120" y="450" as="targetPoint" />
          </mxGeometry>
        </mxCell>
        <mxCell id="0p2p-0njiXwX8uIJ9W5Q-89" value="Refuser une suggestion" style="rounded=0;whiteSpace=wrap;html=1;fillColor=#FFFFFF;" parent="1" vertex="1">
          <mxGeometry x="1880" y="560" width="120" height="40" as="geometry" />
        </mxCell>
        <mxCell id="0p2p-0njiXwX8uIJ9W5Q-90" value="" style="endArrow=classic;html=1;entryX=0.5;entryY=0;entryDx=0;entryDy=0;" parent="1" target="0p2p-0njiXwX8uIJ9W5Q-89" edge="1">
          <mxGeometry width="50" height="50" relative="1" as="geometry">
            <mxPoint x="1939.9999999999995" y="520" as="sourcePoint" />
            <mxPoint x="2280" y="450" as="targetPoint" />
          </mxGeometry>
        </mxCell>
        <mxCell id="0p2p-0njiXwX8uIJ9W5Q-91" value="Choisir une suggestion" style="rounded=0;whiteSpace=wrap;html=1;fillColor=#FFFFFF;" parent="1" vertex="1">
          <mxGeometry x="1800" y="440" width="120" height="40" as="geometry" />
        </mxCell>
        <mxCell id="0p2p-0njiXwX8uIJ9W5Q-92" value="" style="endArrow=classic;html=1;entryX=0.25;entryY=0;entryDx=0;entryDy=0;exitX=0.25;exitY=1;exitDx=0;exitDy=0;" parent="1" source="0p2p-0njiXwX8uIJ9W5Q-82" target="0p2p-0njiXwX8uIJ9W5Q-91" edge="1">
          <mxGeometry width="50" height="50" relative="1" as="geometry">
            <mxPoint x="1859.9999999999995" y="400" as="sourcePoint" />
            <mxPoint x="2200" y="330" as="targetPoint" />
          </mxGeometry>
        </mxCell>
        <mxCell id="0p2p-0njiXwX8uIJ9W5Q-93" value="" style="endArrow=none;html=1;" parent="1" edge="1">
          <mxGeometry width="50" height="50" relative="1" as="geometry">
            <mxPoint x="1780" y="520" as="sourcePoint" />
            <mxPoint x="1940" y="520" as="targetPoint" />
          </mxGeometry>
        </mxCell>
        <mxCell id="0p2p-0njiXwX8uIJ9W5Q-94" value="" style="endArrow=none;html=1;entryX=0.5;entryY=1;entryDx=0;entryDy=0;" parent="1" target="0p2p-0njiXwX8uIJ9W5Q-91" edge="1">
          <mxGeometry width="50" height="50" relative="1" as="geometry">
            <mxPoint x="1860" y="520" as="sourcePoint" />
            <mxPoint x="1949.9999999999995" y="530" as="targetPoint" />
          </mxGeometry>
        </mxCell>
        <mxCell id="0p2p-0njiXwX8uIJ9W5Q-95" value="" style="endArrow=classic;html=1;entryX=0;entryY=0.5;entryDx=0;entryDy=0;exitX=0.25;exitY=0;exitDx=0;exitDy=0;" parent="1" source="0p2p-0njiXwX8uIJ9W5Q-84" target="0p2p-0njiXwX8uIJ9W5Q-91" edge="1">
          <mxGeometry width="50" height="50" relative="1" as="geometry">
            <mxPoint x="1730" y="540" as="sourcePoint" />
            <mxPoint x="1360" y="690" as="targetPoint" />
            <Array as="points">
              <mxPoint x="1750" y="460" />
            </Array>
          </mxGeometry>
        </mxCell>
        <mxCell id="0p2p-0njiXwX8uIJ9W5Q-96" value="" style="endArrow=classic;html=1;entryX=1;entryY=0.5;entryDx=0;entryDy=0;exitX=0.75;exitY=0;exitDx=0;exitDy=0;" parent="1" source="0p2p-0njiXwX8uIJ9W5Q-89" target="0p2p-0njiXwX8uIJ9W5Q-91" edge="1">
          <mxGeometry width="50" height="50" relative="1" as="geometry">
            <mxPoint x="1310" y="740" as="sourcePoint" />
            <mxPoint x="1360" y="690" as="targetPoint" />
            <Array as="points">
              <mxPoint x="1970" y="460" />
            </Array>
          </mxGeometry>
        </mxCell>
        <mxCell id="0p2p-0njiXwX8uIJ9W5Q-97" value="" style="endArrow=classic;html=1;entryX=0.5;entryY=1;entryDx=0;entryDy=0;exitX=1;exitY=0.5;exitDx=0;exitDy=0;" parent="1" source="0p2p-0njiXwX8uIJ9W5Q-5" target="0p2p-0njiXwX8uIJ9W5Q-35" edge="1">
          <mxGeometry width="50" height="50" relative="1" as="geometry">
            <mxPoint x="1680" y="1100" as="sourcePoint" />
            <mxPoint x="1250" y="690" as="targetPoint" />
            <Array as="points">
              <mxPoint x="1660" y="380" />
              <mxPoint x="1660" y="1100" />
              <mxPoint x="500" y="1100" />
            </Array>
          </mxGeometry>
        </mxCell>
        <mxCell id="0p2p-0njiXwX8uIJ9W5Q-101" value="" style="endArrow=classic;html=1;entryX=0.75;entryY=1;entryDx=0;entryDy=0;exitX=0.5;exitY=1;exitDx=0;exitDy=0;" parent="1" source="0p2p-0njiXwX8uIJ9W5Q-63" target="0p2p-0njiXwX8uIJ9W5Q-35" edge="1">
          <mxGeometry width="50" height="50" relative="1" as="geometry">
            <mxPoint x="1100" y="740" as="sourcePoint" />
            <mxPoint x="1150" y="690" as="targetPoint" />
            <Array as="points">
              <mxPoint x="1580" y="1060" />
              <mxPoint x="530" y="1060" />
            </Array>
          </mxGeometry>
        </mxCell>
        <mxCell id="0p2p-0njiXwX8uIJ9W5Q-102" value="" style="endArrow=classic;html=1;entryX=0.25;entryY=1;entryDx=0;entryDy=0;exitX=0;exitY=0.25;exitDx=0;exitDy=0;" parent="1" source="0p2p-0njiXwX8uIJ9W5Q-82" target="0p2p-0njiXwX8uIJ9W5Q-35" edge="1">
          <mxGeometry width="50" height="50" relative="1" as="geometry">
            <mxPoint x="1100" y="740" as="sourcePoint" />
            <mxPoint x="1150" y="690" as="targetPoint" />
            <Array as="points">
              <mxPoint x="1700" y="370" />
              <mxPoint x="1700" y="1140" />
              <mxPoint x="470" y="1140" />
            </Array>
          </mxGeometry>
        </mxCell>
        <mxCell id="0p2p-0njiXwX8uIJ9W5Q-103" value="Accéder aux comptes réguliers" style="rounded=0;whiteSpace=wrap;html=1;fillColor=#FFFFFF;" parent="1" vertex="1">
          <mxGeometry x="2040" y="360" width="120" height="40" as="geometry" />
        </mxCell>
        <mxCell id="0p2p-0njiXwX8uIJ9W5Q-104" value="" style="endArrow=classic;html=1;entryX=0.5;entryY=0;entryDx=0;entryDy=0;" parent="1" target="0p2p-0njiXwX8uIJ9W5Q-103" edge="1">
          <mxGeometry width="50" height="50" relative="1" as="geometry">
            <mxPoint x="2099.9999999999995" y="320" as="sourcePoint" />
            <mxPoint x="2400" y="250" as="targetPoint" />
          </mxGeometry>
        </mxCell>
        <mxCell id="0p2p-0njiXwX8uIJ9W5Q-105" value="Choix d&#39;un compte régulier" style="rounded=0;whiteSpace=wrap;html=1;fillColor=#FFFFFF;" parent="1" vertex="1">
          <mxGeometry x="2040" y="440" width="120" height="40" as="geometry" />
        </mxCell>
        <mxCell id="0p2p-0njiXwX8uIJ9W5Q-106" value="" style="endArrow=classic;html=1;entryX=0.75;entryY=0;entryDx=0;entryDy=0;exitX=0.75;exitY=1;exitDx=0;exitDy=0;" parent="1" source="0p2p-0njiXwX8uIJ9W5Q-103" target="0p2p-0njiXwX8uIJ9W5Q-105" edge="1">
          <mxGeometry width="50" height="50" relative="1" as="geometry">
            <mxPoint x="2099.9999999999995" y="400" as="sourcePoint" />
            <mxPoint x="2440" y="330" as="targetPoint" />
          </mxGeometry>
        </mxCell>
        <mxCell id="0p2p-0njiXwX8uIJ9W5Q-107" value="Suppression du compte" style="rounded=0;whiteSpace=wrap;html=1;fillColor=#FFFFFF;" parent="1" vertex="1">
          <mxGeometry x="2040" y="520" width="120" height="40" as="geometry" />
        </mxCell>
        <mxCell id="0p2p-0njiXwX8uIJ9W5Q-108" value="" style="endArrow=classic;html=1;entryX=0.75;entryY=0;entryDx=0;entryDy=0;exitX=0.75;exitY=1;exitDx=0;exitDy=0;" parent="1" source="0p2p-0njiXwX8uIJ9W5Q-105" target="0p2p-0njiXwX8uIJ9W5Q-107" edge="1">
          <mxGeometry width="50" height="50" relative="1" as="geometry">
            <mxPoint x="2100" y="480" as="sourcePoint" />
            <mxPoint x="2440" y="410" as="targetPoint" />
          </mxGeometry>
        </mxCell>
        <mxCell id="0p2p-0njiXwX8uIJ9W5Q-109" value="" style="endArrow=classic;html=1;exitX=0.25;exitY=0;exitDx=0;exitDy=0;entryX=0.25;entryY=1;entryDx=0;entryDy=0;" parent="1" source="0p2p-0njiXwX8uIJ9W5Q-107" target="0p2p-0njiXwX8uIJ9W5Q-105" edge="1">
          <mxGeometry width="50" height="50" relative="1" as="geometry">
            <mxPoint x="1780" y="740" as="sourcePoint" />
            <mxPoint x="1830" y="690" as="targetPoint" />
          </mxGeometry>
        </mxCell>
        <mxCell id="0p2p-0njiXwX8uIJ9W5Q-110" value="" style="endArrow=classic;html=1;entryX=0.25;entryY=1;entryDx=0;entryDy=0;exitX=0.25;exitY=0;exitDx=0;exitDy=0;" parent="1" source="0p2p-0njiXwX8uIJ9W5Q-105" target="0p2p-0njiXwX8uIJ9W5Q-103" edge="1">
          <mxGeometry width="50" height="50" relative="1" as="geometry">
            <mxPoint x="1780" y="740" as="sourcePoint" />
            <mxPoint x="1830" y="690" as="targetPoint" />
          </mxGeometry>
        </mxCell>
        <mxCell id="0p2p-0njiXwX8uIJ9W5Q-111" value="" style="endArrow=classic;html=1;entryX=0.75;entryY=1;entryDx=0;entryDy=0;exitX=0.75;exitY=0;exitDx=0;exitDy=0;" parent="1" source="0p2p-0njiXwX8uIJ9W5Q-91" target="0p2p-0njiXwX8uIJ9W5Q-82" edge="1">
          <mxGeometry width="50" height="50" relative="1" as="geometry">
            <mxPoint x="1820" y="740" as="sourcePoint" />
            <mxPoint x="1870" y="690" as="targetPoint" />
          </mxGeometry>
        </mxCell>
        <mxCell id="0p2p-0njiXwX8uIJ9W5Q-112" value="" style="endArrow=classic;html=1;exitX=1;exitY=0.5;exitDx=0;exitDy=0;entryX=0.117;entryY=0.982;entryDx=0;entryDy=0;entryPerimeter=0;" parent="1" source="0p2p-0njiXwX8uIJ9W5Q-103" target="0p2p-0njiXwX8uIJ9W5Q-35" edge="1">
          <mxGeometry width="50" height="50" relative="1" as="geometry">
            <mxPoint x="1780" y="620" as="sourcePoint" />
            <mxPoint x="1060" y="1180" as="targetPoint" />
            <Array as="points">
              <mxPoint x="2200" y="380" />
              <mxPoint x="2200" y="1180" />
              <mxPoint x="454" y="1180" />
            </Array>
          </mxGeometry>
        </mxCell>
        <mxCell id="hJg6ZSLPugWXU6wELREO-1" value="" style="ellipse;whiteSpace=wrap;html=1;aspect=fixed;" vertex="1" parent="1">
          <mxGeometry x="680" y="390" width="80" height="80" as="geometry" />
        </mxCell>
        <mxCell id="hJg6ZSLPugWXU6wELREO-2" value="" style="shape=cylinder3;whiteSpace=wrap;html=1;boundedLbl=1;backgroundOutline=1;size=15;" vertex="1" parent="1">
          <mxGeometry x="690" y="390" width="60" height="80" as="geometry" />
        </mxCell>
        <mxCell id="hJg6ZSLPugWXU6wELREO-3" value="" style="shape=cylinder3;whiteSpace=wrap;html=1;boundedLbl=1;backgroundOutline=1;size=15;" vertex="1" parent="1">
          <mxGeometry x="600" y="80" width="60" height="80" as="geometry" />
        </mxCell>
      </root>
    </mxGraphModel>
  </diagram>
</mxfile>
